<svg width="276" height="308" viewBox="0 0 276 308" fill="none" xmlns="http://www.w3.org/2000/svg">
<g clip-path="url(#clip0_1_642)">
<path d="M0 40C0 21.1438 0 11.7157 5.85786 5.85786C11.7157 0 21.1438 0 40 0H236C254.856 0 264.284 0 270.142 5.85786C276 11.7157 276 21.1438 276 40V268C276 286.856 276 296.284 270.142 302.142C264.284 308 254.856 308 236 308H40C21.1438 308 11.7157 308 5.85786 302.142C0 296.284 0 286.856 0 268V40Z" fill="#F7F7F7"/>
<path d="M38.6665 61.8621V51.4335H28.2379V45.104H38.6665V34.7357H44.996V45.104H55.3643V51.4335H44.996V61.8621H38.6665Z" fill="#2CB7C6"/>
<rect x="-5" y="269" width="286" height="47" fill="url(#paint0_linear_1_642)"/>
<rect x="20.4414" y="285" width="240.38" height="6" rx="3" fill="white" fill-opacity="0.36"/>
<rect x="20.4414" y="285" width="153.528" height="6" rx="3" fill="white"/>
</g>
<defs>
<linearGradient id="paint0_linear_1_642" x1="-5" y1="292.5" x2="281" y2="292.5" gradientUnits="userSpaceOnUse">
<stop stop-color="#2CB7C6"/>
<stop offset="1" stop-color="#2CB7C6" stop-opacity="0.53"/>
</linearGradient>
<clipPath id="clip0_1_642">
<path d="M0 40C0 21.1438 0 11.7157 5.85786 5.85786C11.7157 0 21.1438 0 40 0H236C254.856 0 264.284 0 270.142 5.85786C276 11.7157 276 21.1438 276 40V268C276 286.856 276 296.284 270.142 302.142C264.284 308 254.856 308 236 308H40C21.1438 308 11.7157 308 5.85786 302.142C0 296.284 0 286.856 0 268V40Z" fill="white"/>
</clipPath>
</defs>
</svg>
